<?xml version="1.0" encoding="UTF-8"?><svg id="_Слой_1" xmlns="http://www.w3.org/2000/svg" viewBox="0 0 277 80" width="277" height="80"><path d="M98.1,14.7c0-1.5-.6-2.9-2.3-2.9-2.7,0-3.1,3.6-3.1,5.6,0,2.7.5,6.6,4,6.6,1.4,0,2.4-.5,3.5-1.4v2c-1.2.7-2.5.9-3.9.9-4.5,0-6.1-3.8-6.1-7.8,0-3.7,1.4-7.2,5.7-7.2,2.7,0,4.8,1.3,4.8,4.2h-2.6M107.5,25.3v-1.4h0c-.6,1-1.7,1.6-2.8,1.6-1.4,0-2.7-1-2.7-2.5,0-2.8,3.5-3.2,5.6-3.3v-.9c0-1,0-2.9-1.4-2.9-1.3,0-1.6,1.1-1.6,2.2h-2.2c.2-2.3,1.6-3.1,3.8-3.1,2.8,0,3.5,1.2,3.5,3.8v6.4l-2.2.1h0ZM107.5,20.6c-1.3.1-3.3.4-3.3,2.1,0,.7.4,1.5,1.2,1.5.3,0,.6-.1.8-.2.8-.4,1.3-1.3,1.3-2.2v-1.2ZM118.6,25.3v-4.6h-3.8v4.6h-2.1v-10h2.1v4.2h3.8v-4.2h2.1v10h-2.1M123.8,15.3h2.1v4.3c1.2-1.4,2.4-2.8,3.6-4.3h2.1l-3.9,4.5c1.3.2,2.3.5,3,2.5l1,2.9h-2.3l-.8-2.2c-.6-1.7-1.1-2.1-2.4-2.1h-.3v4.4h-2.1v-10M137.2,16.5v8.8h-2.1v-8.8h-2.7v-1.2h7.6v1.2h-2.8M141.2,19h5.1v1.5h-5.1v-1.5ZM156.5,25.3v-13h-5.1v13h-2.3v-14.5h9.7v14.5h-2.3M163.4,19.2c0,2.4,1.1,5.2,3.9,5.2.7,0,1.3-.1,1.9-.4v1c-1,.4-1.8.6-2.9.6-3.5,0-5-2.4-5-5.7,0-2.9,1.2-4.8,4.3-4.8,2.7,0,3.9,1.5,3.9,4.1h-6.1ZM165.5,16c-1.3,0-1.9,1.1-2,2.2h3.9c0-1.2-.6-2.2-1.9-2.2h0ZM175.2,16.5v8.8h-2.1v-8.8h-2.7v-1.2h7.6v1.2h-2.8M180.8,19.2c0,2.4,1.1,5.2,3.9,5.2.7,0,1.3-.1,1.9-.4v1c-1,.4-1.8.6-2.9.6-3.5,0-5-2.4-5-5.7,0-2.9,1.2-4.8,4.3-4.8,2.7,0,3.9,1.5,3.9,4.1h-6.1ZM182.8,16c-1.3,0-1.9,1.1-2,2.2h3.9c0-1.2-.5-2.2-1.9-2.2ZM193.9,25.5c-1.2,0-2-.5-2.6-1.6h0v5.9h-2.1v-14.5h2.1v1.7h0c.5-1.1,1.3-1.9,2.6-1.9,3.1,0,3.8,2.7,3.8,5.2s-.8,5.2-3.8,5.2h0ZM193.3,16.4c-1.9,0-2,2.5-2,3.9s0,4,2,4c1.8,0,2-2.7,2-4,.1-1.3-.1-3.9-2-3.9ZM207.5,12.2l-3.4,1.3c-1.9.7-2.7,1.7-3.1,3.4h.1c.6-1.2,1.7-1.8,3.1-1.8,3,0,4,2.2,4,5.1,0,3.2-1.3,5.4-4.4,5.4-3.3,0-4.4-2.2-4.4-5.7,0-3.9.9-6.7,4.2-8.1,1-.4,2-.9,3.1-1.3l.8,1.7h0ZM203.8,24.6c1.9,0,2.1-2.4,2.1-3.9v-.8c0-1.5-.1-3.8-2.1-3.8-1.8,0-2.2,2.4-2.2,3.8v.8c.1,1.5.3,3.9,2.2,3.9ZM213.2,29.8h-1.7l1.5-4.4-3.8-10.1h2.2l2.6,7.1h0l2.4-7.1h2l-5.2,14.5M224.7,25.5c-1.2,0-2-.5-2.6-1.6h0v5.9h-2.1v-14.5h2.1v1.7h0c.5-1.1,1.3-1.9,2.6-1.9,3.1,0,3.8,2.7,3.8,5.2,0,2.5-.8,5.2-3.8,5.2h0ZM224.2,16.4c-1.9,0-2,2.5-2,3.9s0,4,2,4c1.8,0,2-2.7,2-4s-.2-3.9-2-3.9ZM236.6,15.3v1.2h-3.6v8.8h-2.1v-10h5.7M242.8,18.6c0-1-.1-2.6-1.5-2.6-1.5,0-1.9,2.1-1.9,3.2,0,2.2.9,5.2,3.6,5.2.6,0,1.2-.1,1.8-.4v1c-.9.3-1.8.5-2.7.5-3.5,0-5-2.3-5-5.6,0-2.8,1.2-4.8,4.2-4.8,2.4,0,3.6,1.1,3.6,3.5h-2.1M246.8,15.3h2.1v4.3c1.2-1.4,2.4-2.8,3.6-4.3h2.1l-3.9,4.5c1.3.2,2.3.5,3,2.5l1,2.9h-2.3l-.8-2.2c-.6-1.7-1.1-2.1-2.4-2.1h-.2v4.4h-2.1l-.1-10M256.6,25.3v-10h2v7.5l4.2-7.5h2v10h-2v-7.3l-4.2,7.4h-2M267.9,25.3v-10h2v7.5l4.2-7.5h2v10h-2v-7.3l-4.2,7.4h-2v-.1ZM275.1,10.6c-.1,1.7-1.1,3-2.9,3s-3-1.2-3-3h1.2c.2.9.8,1.4,1.7,1.4,1,0,1.5-.5,1.8-1.4h1.2ZM96.5,37.6v1.2h-3.5v8.8h-2.1v-10h5.6M101.5,47.8c-3.3,0-4.4-2.3-4.4-5.2s1.2-5.2,4.4-5.2,4.4,2.2,4.4,5.2-1.1,5.2-4.4,5.2ZM101.5,38.2c-2,0-2.1,2.9-2.1,4.3s.1,4.3,2.1,4.3,2.1-2.9,2.1-4.3,0-4.3-2.1-4.3ZM113.3,40.8c0-1-.1-2.6-1.5-2.6-1.5,0-1.8,2.1-1.8,3.2,0,2.2.9,5.2,3.6,5.2.6,0,1.2-.1,1.8-.4v1c-.9.3-1.8.5-2.7.5-3.5,0-5-2.3-5-5.6,0-2.8,1.2-4.8,4.2-4.8,2.4,0,3.6,1.1,3.6,3.5h-2.2M119.9,52h-1.7l1.5-4.4-3.8-10.1h2.2l2.6,7.1h0l2.4-7.1h2l-5.2,14.5M127.3,47.6c-.1.8-.1,1.6-.2,2.4h-1.7v-3.6h1c.8-1.4,1.1-3.8,1.1-6.5v-2.3h6.9v8.8h1.4l-.3,3.6h-1.7v-2.4h-6.5ZM129.6,38.7v1.1c0,2.3-.3,4.8-1.2,6.5h3.9v-7.6h-2.7ZM142.7,47.6v-1.4h0c-.6,1-1.7,1.6-2.8,1.6-1.4,0-2.7-1-2.7-2.5,0-2.8,3.5-3.2,5.6-3.3v-.9c0-1,0-2.9-1.4-2.9-1.3,0-1.6,1.1-1.6,2.2h-2.2c.2-2.3,1.6-3.1,3.9-3.1,2.8,0,3.5,1.2,3.5,3.8v6.4h-2.3v.1ZM142.7,42.9c-1.3.1-3.3.4-3.3,2.1,0,.7.4,1.5,1.2,1.5.3,0,.6-.1.8-.2.8-.4,1.3-1.3,1.3-2.2v-1.2ZM152.7,47.8c-1.2,0-2-.5-2.6-1.6h0v5.8h-2.1v-14.4h2.1v1.6h0c.5-1.1,1.3-1.9,2.6-1.9,3.1,0,3.8,2.7,3.8,5.2,0,2.6-.8,5.3-3.8,5.3ZM152.1,38.7c-1.9,0-2,2.5-2,3.9s0,4,2,4c1.8,0,2-2.7,2-4,0-1.4-.2-3.9-2-3.9ZM163.7,40.8c0-1-.1-2.6-1.5-2.6-1.5,0-1.9,2.1-1.9,3.2,0,2.2.9,5.2,3.6,5.2.6,0,1.2-.1,1.8-.4v1c-.9.3-1.8.5-2.7.5-3.5,0-5-2.3-5-5.6,0-2.8,1.2-4.8,4.2-4.8,2.4,0,3.6,1.1,3.6,3.5h-2.1M171.4,38.7v8.8h-2.1v-8.8h-2.7v-1.2h7.6v1.2h-2.8M179.5,47.6h-3.6v-10h3.5c1.9,0,3.8.4,3.8,2.4,0,1.1-.7,2-2.1,2.4h0c1.7.2,2.6,1,2.6,2.5,0,2.2-1.9,2.7-4.2,2.7ZM178.9,38.6h-.9v3.2h.8c1.2,0,2.1-.3,2.1-1.6.1-1.2-.7-1.6-2-1.6h0ZM178.9,42.9h-.9v3.5h.9c1.5,0,2.6-.3,2.6-1.8,0-1.4-1.1-1.7-2.6-1.7h0ZM187.4,41.4c0,2.4,1.1,5.2,3.9,5.2.7,0,1.3-.1,1.9-.4v1c-1,.4-1.8.6-2.9.6-3.5,0-5-2.4-5-5.7,0-2.9,1.2-4.8,4.3-4.8,2.7,0,3.9,1.5,3.9,4.1h-6.1ZM189.4,38.2c-1.3,0-1.9,1.1-2,2.2h3.9c0-1.1-.6-2.2-1.9-2.2h0ZM201.6,47.6v-4.6h-3.8v4.6h-2.1v-10h2.1v4.2h3.8v-4.2h2.1v10h-2.1M212.7,47.6v-4.6h-3.7v4.6h-2.1v-10h2.1v4.2h3.8v-4.2h2.1v10h-2.2M220.1,37.6v4.2h1.6c2.1,0,3.8.6,3.8,2.8,0,2.4-2,3-4.1,3h-3.4v-10h2.1ZM220.5,42.9h-.4v3.6h1.1c1.2-.1,2.1-.5,2.1-1.8-.1-1.6-1.2-1.8-2.8-1.8ZM226.6,37.6h2.1v10h-2.1v-10h0ZM231.9,47.6v-10h2v7.5l4.2-7.5h2v10h-2v-7.4l-4.2,7.3-2,.1h0ZM239.1,32.8c-.1,1.7-1.1,3-2.9,3s-3-1.2-3-3h1.2c.2.9.8,1.4,1.7,1.4,1,0,1.5-.5,1.8-1.5l1.2.1h0ZM93.4,74.3h-1.7l1.5-4.4-3.8-10.1h2.2l2.6,7.1h0l2.4-7.1h2l-5.2,14.5M106.1,69.8v-4.6h-3.8v4.6h-2.1v-10h2.1v4.2h3.8v-4.2h2.1v10h-2.1M111.3,69.8v-10h2v7.5l4.2-7.5h2v10h-2v-7.3l-4.2,7.3h-2M126.2,69.8h-3.6v-10h3.5c1.9,0,3.8.4,3.8,2.4,0,1.1-.7,2-2.1,2.4h0c1.7.2,2.6,1,2.6,2.5,0,2.2-1.9,2.7-4.2,2.7h0ZM125.6,60.9h-.9v3.1h.8c1.2,0,2.1-.3,2.1-1.6.1-1.2-.6-1.5-2-1.5ZM125.7,65.1h-.9v3.6h.9c1.5,0,2.6-.3,2.6-1.8-.1-1.5-1.2-1.8-2.6-1.8ZM134.1,63.7c0,2.4,1.1,5.3,3.9,5.3.7,0,1.3-.1,1.9-.4v1c-1,.4-1.8.6-2.9.6-3.5,0-5-2.4-5-5.7,0-2.9,1.2-4.8,4.3-4.8,2.7,0,3.9,1.5,3.9,4.1l-6.1-.1h0ZM136.1,60.4c-1.3,0-1.9,1.1-2,2.2h3.9c0-1.1-.5-2.2-1.9-2.2ZM147.2,70c-1.2,0-2-.5-2.6-1.6h0v5.9h-2.1v-14.5h2.1v1.6h0c.5-1.1,1.3-1.9,2.6-1.9,3.1,0,3.8,2.7,3.8,5.2s-.8,5.3-3.8,5.3h0ZM146.6,60.9c-1.9,0-2,2.5-2,3.9s0,4,2,4c1.8,0,2-2.7,2-4s-.1-3.9-2-3.9h0ZM158.2,63c0-1-.1-2.6-1.5-2.6-1.5,0-1.9,2.1-1.9,3.2,0,2.2.9,5.2,3.6,5.2.6,0,1.2-.1,1.8-.4v1c-.9.3-1.8.5-2.7.5-3.5,0-5-2.3-5-5.6,0-2.8,1.2-4.8,4.2-4.8,2.4,0,3.6,1.1,3.6,3.5h-2.1M162.3,69.8v-10h2v7.5l4.2-7.5h2v10h-2v-7.3l-4.2,7.3h-2M177,61v8.8h-2.1v-8.8h-2.7v-1.2h7.6v1.2h-2.8M182.6,63.7c0,2.4,1.1,5.3,3.9,5.3.7,0,1.3-.1,1.9-.4v1c-1,.4-1.8.6-2.9.6-3.5,0-5-2.4-5-5.7,0-2.9,1.2-4.8,4.3-4.8,2.7,0,3.9,1.5,3.9,4.1l-6.1-.1h0ZM184.6,60.4c-1.3,0-1.9,1.1-2,2.2h3.9c0-1.1-.6-2.2-1.9-2.2ZM194.3,61v8.8h-2.1v-8.8h-2.7v-1.2h7.6v1.2h-2.8" style="fill:#9f2d20; fill-rule:evenodd; stroke-width:0px;"/><path d="M29.6,12.88c.02.06.05.11.07.16.41.87,1.16,1.71,1.16,1.71,0,0,0,0,.01,0h0s.11-.08.33-.2c.07-.04.16-.09.26-.14.24-.12.54-.25.92-.39.9-.32,2.1-.42,2.1-.42,0,0-1.12-1.55-1.33-3.8-.12-1.27-.07-1.94-.06-1.98-.08,0-.15-.01-.23-.01-.85,0-1.63.3-2.24.79-.02.01-.03.02-.05.04-.79.66-1.29,1.64-1.29,2.75,0,.31.04.61.12.89.06.18.14.42.22.61Z" style="stroke-width:0px;"/><path d="M51.12,23.77c.37.58.35,1.31.35,1.31,0,0,.74.13,1.1.49,0,0,.06-.06.06-.07.5-.61,1.41-1.61,1.67-3.06.21-1.18.08-2.84-.17-3.36,0-.02-.02-.05-.03-.06.24-.27.63-.91,1.71-.91.4,0,.75.11,1.04.25.47.23.77.53.77.53,0,0-.93,1.66-1.42,2.45-.25.4-.43.72-.93,1.83-.42.92-.53,1.53-.46,2.2.06.56.36,1.62.48,2.68.24,2.04-.16,3.04-.16,3.04,0,0,.01,0,.02-.02,0,0,0,.02,0,.02,0,0,2.42-1.6,3.96-5.17,0,0-.01,0-.02,0,0,0,0,0,0,0-.28-.05-.51-.13-.71-.23-.2-.1-.38-.23-.57-.37-1.36-1.04-1.05-2.14-.61-2.66.13-.15.26-.29.39-.43.34-.36.71-.73,1.1-1.18.49-.57.67-1.14.73-1.64.02-.17.05-.35.05-.53,0-1.5-.73-2.53-1.66-3.04-.31-.17-.64-.29-.97-.35-1.04-.18-2.31.21-3.24.84-.35.24-.94.78-1.1,1.18-.2,1.01.1,1.27.41,2.32,0,.02.02.04.03.06.64,2.33.31,3.46-1.79,3.9Z" style="stroke-width:0px;"/><path d="M40.71,21.69c.27.58.77,1.14.77,1.14,0,0,0,0,0,0,0,0,.07.07.07.07,0,0,.27-.24,1-.52.6-.23,1.36-.31,1.36-.31,0,0-.75-1.04-.89-2.54-.08-.87-.05-1.32-.04-1.33,0,0-.01,0-.02,0h0c-.38-.07-.77,0-1.14.18-.25.14-.47.29-.66.46-.32.29-.54.61-.62.95-.13.37-.18.77-.1,1.19,0,.04.14.47.25.71Z" style="stroke-width:0px;"/><path d="M44.03,20.15c.32.9.86,1.66,1.27,1.81.06.03.12.04.18.04h0c.43-.05.99-.91,1.27-1.97.26-.99.08-1.81-.35-2.16-.1-.07-.21-.14-.32-.19-.02,0-.04-.01-.06-.02.22-.19.36-.47.36-.77,0-.48-.32-.87-.75-.99v-.42h.72v-.58h-.72v-.91h-.58v.91h-.72v.58h.72v.42c-.43.12-.74.51-.74.99,0,.31.13.58.35.77-.17.08-.33.18-.47.3-.4.39-.5,1.22-.16,2.19Z" style="stroke-width:0px;"/><path d="M46.95,21.99s1.27,0,2.55.51c.02,0,.04.02.06.03.17-.22.42-.56.58-.91.11-.24.24-.68.25-.71.08-.42.03-.82-.1-1.19-.08-.34-.3-.67-.62-.95-.19-.17-.41-.32-.66-.46,0,0,0,0,0,0,0,0,0,0,0,0-.36-.17-.76-.25-1.14-.18,0,0,.04.46-.04,1.33-.14,1.5-.89,2.54-.89,2.54,0,0,.01,0,.02,0h0Z" style="stroke-width:0px;"/><path d="M38.65,13.59s1.2.1,2.1.42c.38.13.69.27.92.39.1.05.19.1.26.14.22.12.33.2.33.2h0s.01,0,.01,0c0,0,.75-.84,1.16-1.71.02-.05.05-.1.07-.16.08-.2.16-.43.22-.61.07-.29.12-.58.12-.89,0-1.11-.5-2.09-1.29-2.75-.01-.01-.03-.02-.05-.04-.61-.49-1.39-.79-2.24-.79-.08,0-.15,0-.23.01.01.04.06.71-.06,1.98-.21,2.24-1.33,3.8-1.33,3.8Z" style="stroke-width:0px;"/><path d="M39.44,17.04s.14.7.22,1.01c0,0,.09,0,.09,0,.53-.21,1.58-.53,1.58-.88v-1.12c0-.2-.2-.39-.57-.56-.74-.34-2.12-.58-3.69-.61h-.91c-1.62.01-3.08.26-3.84.61-.36.17-.57.36-.57.56v1.12c0,.35,1.06.66,1.59.88,0,0,.09,0,.09,0,.08-.31.23-1.01.23-1.01,0,0-.11-.05-.14-.09-.07-.14.05-.22.25-.33.2-.11.52-.17.8-.18.17.61.19,1.58.16,2.4-.07,1.66-.39,3.74-1.37,5.15.37.36.79.83,1.21,1.44,1.02-1.95,1.18-4.09,1.26-6.29.04-.97,0-2.1,0-2.88.1,0,.41-.04.72-.04s.62.04.72.04c0,.78-.04,1.91,0,2.88.09,2.24.25,4.41,1.31,6.39.39-.57.77-1.02,1.12-1.38.03-.03.05-.07.07-.1-1.01-1.42-1.33-3.53-1.4-5.21-.04-.83-.01-1.79.16-2.4.28.01.6.08.8.18.2.11.31.19.25.33-.02.05-.14.09-.14.09Z" style="stroke-width:0px;"/><path d="M53.17,32.69s0,0-.01,0c-.02,0-.03,0-.05,0h-.03c-.06,0-.11.01-.17.02-.58.04-1.15,0-1.62-.19-.26-.09-.49-.24-.72-.39-.05-.04-.64-.57-.75-.67-.43-.4-1.24-.99-2.08-1.07-.95-.09-1.55.25-2.23.52-.06.03-.11.09-.12.16,0,.08.04.15.11.18.02.01.05.02.08.02.67.05,1.31.16,1.92.34.45.14.9.28,1.25.53.46.33.86.75,1.13.92.35.22.65.43,1.05.51.42.07.85.04,1.26-.06.02,0,.04-.01.05-.02.11-.03.21-.07.32-.11.14-.06.28-.12.41-.19,0,0,.01,0,.02,0,.08-.05.17-.09.25-.15,0,0,0,0,0,0,.05-.04.08-.1.07-.16,0-.08-.07-.15-.15-.16,0,0,0,0,0,0Z" style="stroke-width:0px;"/><path d="M50.57,26.44c.04.13.18.28.35.37.51.29.68.72-.07.81-.55.07-1.13-.3-3.16.26-1.19.33-2.6,1.53-3.09,2.09-.15.17-.31.37-.45.58-.47.68-.47,1.6.04,2.25.3.39.64.64.74.71,1.79,1.21,3.46.21,3.65.02.15-.15.16-.2.13-.24,0,0,0,0-.01,0,0,0,0,0,0,0,0,0,0,0,0,0,0,0-.57.3-1.36.3-.45,0-.91-.08-1.29-.25-.28-.13-.93-.47-1.31-1.08-.25-.4-.2-.91.1-1.27.3-.36.66-.7,1-.95.77-.56,1.65-.9,2.67-.92.02,0,.05,0,.07,0,.51,0,1.01.09,1.47.24.23.08.46.17.68.28.66.34,1.22.82,1.66,1.41,0,0,0,0,0,0,0,0,0,0,.01.01.17-.28.36-.71.51-1.31.03-.11.06-.21.08-.33.23-1,.16-3.33-2.05-3.33-.04,0-.08.02-.12.03-.24.06-.29.19-.25.32Z" style="stroke-width:0px;"/><path d="M14.23,21.03c.39.45.76.82,1.1,1.18.13.14.26.29.39.43.44.52.75,1.62-.61,2.66-.19.14-.37.27-.57.37-.2.1-.43.18-.71.23,0,0,0,0,0,0,0,0-.01,0-.02,0,1.53,3.57,3.96,5.17,3.96,5.17,0,0,0-.02,0-.02.01,0,.02.02.02.02,0,0-.4-1-.16-3.04.13-1.07.42-2.13.48-2.68.07-.66-.04-1.27-.46-2.2-.5-1.11-.68-1.42-.93-1.83-.49-.79-1.42-2.45-1.42-2.45,0,0,.29-.3.77-.53.29-.14.64-.25,1.04-.25,1.08,0,1.47.64,1.71.91,0,.02-.02.04-.03.06-.25.53-.39,2.18-.17,3.36.26,1.45,1.18,2.45,1.67,3.06,0,.01.06.07.06.07.36-.36,1.1-.49,1.1-.49,0,0-.02-.73.35-1.31-2.1-.44-2.43-1.57-1.79-3.9,0-.02.02-.04.03-.06.31-1.05.61-1.3.41-2.32-.16-.4-.75-.94-1.1-1.18-.93-.63-2.2-1.02-3.24-.84-.33.06-.66.17-.97.35-.93.51-1.66,1.54-1.66,3.04,0,.18.02.35.05.53.06.5.24,1.07.73,1.64Z" style="stroke-width:0px;"/><path d="M28.99,22.07s.76.08,1.36.31c.72.28,1,.52,1,.52,0,0,.07-.07.07-.07,0,0,0,0,0,0,0,0,.5-.56.77-1.14.11-.24.24-.68.25-.71.08-.42.03-.82-.1-1.19-.08-.34-.3-.67-.62-.95-.19-.17-.41-.32-.66-.46-.36-.17-.76-.25-1.14-.18h0s-.01,0-.02,0c0,0,.04.46-.04,1.33-.14,1.5-.89,2.54-.89,2.54Z" style="stroke-width:0px;"/><path d="M27.42,22.01h0c.06,0,.12-.02.18-.04.41-.16.95-.91,1.27-1.81.34-.96.24-1.8-.16-2.19-.14-.12-.31-.22-.48-.29.22-.19.36-.47.36-.78,0-.48-.32-.87-.75-.99v-.42h.72v-.58h-.72v-.91h-.58v.91h-.72v.58h.72v.42c-.43.12-.74.51-.74.99,0,.31.14.58.36.78-.02,0-.04.01-.05.02-.11.05-.22.11-.32.19-.43.35-.61,1.18-.35,2.16.27,1.06.84,1.92,1.27,1.97Z" style="stroke-width:0px;"/><path d="M22.77,21.62c.17.35.41.69.58.91.02-.01.04-.02.06-.03,1.27-.5,2.55-.51,2.55-.51h0s.02,0,.02,0c0,0-.75-1.04-.89-2.54-.08-.87-.05-1.32-.04-1.33-.38-.06-.77.01-1.14.18,0,0,0,0,0,0,0,0,0,0,0,0-.25.14-.47.29-.66.46-.32.29-.54.61-.62.95-.13.37-.18.77-.1,1.19,0,.04.14.47.25.71Z" style="stroke-width:0px;"/><path d="M27.31,31.25s.05-.01.08-.02c.07-.03.12-.1.11-.18,0-.07-.05-.13-.12-.16-.68-.27-1.28-.61-2.23-.52-.84.08-1.65.67-2.08,1.07-.11.1-.7.62-.75.67-.22.16-.45.31-.72.39-.47.18-1.03.23-1.62.19-.05,0-.11-.01-.17-.02h-.03s-.03,0-.05,0c0,0,0,0-.01,0,0,0,0,0,0,0-.08.01-.14.08-.15.16,0,.07.02.13.07.16,0,0,0,0,0,0,.08.06.17.1.25.15,0,0,.01,0,.02,0,.13.08.27.14.41.19.1.04.21.08.32.11.02,0,.04.01.05.02.41.11.84.13,1.26.06.4-.08.7-.29,1.05-.51.27-.17.67-.59,1.13-.92.35-.25.8-.4,1.25-.53.61-.18,1.24-.29,1.92-.34Z" style="stroke-width:0px;"/><path d="M19.92,29.42c.03.12.05.22.08.33.16.6.35,1.02.51,1.31,0,0,0,0,.01-.01,0,0,0,0,0,0,.43-.59,1-1.07,1.66-1.41.22-.11.44-.2.68-.28.46-.15.95-.24,1.47-.24.02,0,.05,0,.07,0,1.02.02,1.9.36,2.67.92.34.25.7.59,1,.95.3.36.35.87.1,1.27-.38.61-1.03.96-1.31,1.08-.38.17-.84.25-1.29.25-.79,0-1.36-.3-1.36-.3,0,0,0,0,0,0,0,0,0,0,0,0,0,0,0,0-.01,0-.03.04-.02.1.13.24.18.18,1.86,1.19,3.65-.02.1-.07.44-.32.74-.71.51-.65.52-1.57.04-2.25-.15-.21-.3-.41-.45-.58-.49-.56-1.9-1.76-3.09-2.09-2.04-.56-2.61-.19-3.16-.26-.76-.09-.58-.52-.07-.81.16-.09.3-.24.35-.37.04-.13-.01-.26-.25-.32-.04,0-.08-.03-.12-.03-2.21,0-2.28,2.32-2.05,3.33Z" style="stroke-width:0px;"/><path d="M46.81,63.52v.02s.01,0,.02,0c0,0,0-.02-.02-.02Z" style="stroke-width:0px;"/><path d="M37.71,40.98c.07.15.36.38.43.83,0,.05,1.12-1.18,1.12-1.18v-1.18l-1.18.5-.36,1.02Z" style="stroke-width:0px;"/><path d="M30.49,71.83c.54-.14,1.02-.31,1.54-.51.26-.1.51-.21.77-.34.26-.13.51-.28.76-.45.24-.17.47-.39.66-.63.1-.12.18-.25.25-.4.03-.07.07-.15.09-.22l.05-.19h0c.03-.15-.05-.29-.19-.32-.05-.01-.11,0-.16.01-.05.01-.09.04-.12.08-.16.19-.34.32-.52.42-.18.1-.38.17-.59.23-.43.13-.91.19-1.39.25-.48.06-1,.11-1.48.16-.48.04-.96.07-1.46.08l-1.53.05c-.53.03-1.08.06-1.72.2-.24.06-.5.13-.77.26-.09.04-.18.09-.27.14-.35.22-.69.57-.86.98-.18.41-.2.81-.13,1.16.08.35.22.65.47.9.1.1.25.13.37.07.04-.02.15-.11.15-.11.44-.71,1.38-1.09,1.57-1.14.76-.18,1.85-.23,2.9-.38.53-.08,1.07-.18,1.61-.32Z" style="stroke-width:0px;"/><path d="M25.69,68.89c0,.14.1.26.24.27.06,0,.12-.01.16-.04h0s0,0,0,0l.08-.06c.12-.08.24-.15.37-.21.38-.17.76-.23,1.13-.24.51-.02,1.04.05,1.64.15.65.12,1.38.17,2.09.11.36-.03.72-.1,1.09-.2.18-.06.37-.12.56-.22,0,0,0,0,0,0,0,0,0,0,.01,0,.17-.1.42-.23.54-.5.05-.11,0-.23-.1-.28-.02,0-.03-.01-.05-.02,0,0-.72-.14-1.01-.22l-.92-.24c-.63-.15-1.22-.29-1.9-.4-.71-.12-1.56-.12-2.35.19-.1.04-.2.08-.3.13-.67.35-1.25.97-1.3,1.76Z" style="stroke-width:0px;"/><path d="M26.72,66.36s.45-.16.65-.23c0,0,0,0,0,0,0,0-2.47-.9-1.07-2.5v-.06s0-.01,0,0c-.24-.03-.48,0-.7.08-.22.09-.42.23-.58.43-.67.84.25,1.74.28,1.76-.14-.01-.47-.06-.61-.07-.6-.41-1.59-1.42-.17-3.56-.04,0-.07,0-.11,0-.21,0-.41.03-.6.11-.11.04-.22.08-.32.13-.7.34-1.18,1.01-1.18,1.78,0,.31.09.61.23.87.1.19.24.37.4.52-.11,0-.56-.04-.67-.07-.65-.75-1.37-2.16.02-3.8-.04,0-.07,0-.11,0-.21,0-.41.03-.6.11-.13.05-.24.1-.35.16-.77.44-1.15,1.28-1.15,1.98,0,.31.11.83.23,1.1.91,2.24,5.23,1.56,6.4,1.27Z" style="stroke-width:0px;"/><path d="M48.69,70.67c-.09-.06-.18-.1-.27-.14-.27-.13-.53-.2-.77-.26-.63-.15-1.19-.17-1.72-.2l-1.53-.05c-.49-.02-.98-.04-1.46-.08-.48-.05-1-.1-1.48-.16-.49-.06-.96-.13-1.39-.25-.21-.07-.41-.14-.59-.23-.19-.1-.36-.23-.52-.42-.03-.04-.07-.06-.12-.08-.05-.02-.1-.03-.16-.01-.14.03-.22.18-.19.32h0s.05.2.05.2c.02.07.06.15.09.22.07.14.15.28.25.4.19.24.42.46.66.63.25.17.5.32.76.45.25.13.51.24.77.34.52.2,1.01.36,1.54.51.54.14,1.07.24,1.61.32,1.05.15,2.14.2,2.9.38.18.04,1.13.43,1.57,1.14,0,0,.11.09.15.11.12.05.27.03.37-.07.25-.26.39-.56.47-.9.07-.34.05-.75-.13-1.16-.17-.41-.52-.76-.86-.98Z" style="stroke-width:0px;"/><path d="M40.03,68.45s0,0,.01,0c0,0,0,0,0,0,.19.1.38.16.56.22.37.1.73.17,1.09.2.71.06,1.44,0,2.09-.11.6-.11,1.12-.17,1.64-.15.37,0,.75.07,1.13.24.12.06.25.12.37.21l.08.05s0,0,0,0h.01s.1.05.16.05c.14,0,.25-.13.24-.27-.05-.79-.63-1.42-1.3-1.76-.1-.05-.2-.1-.3-.13-.79-.31-1.64-.31-2.35-.19-.67.11-1.27.25-1.9.4l-.92.24c-.29.08-1.01.22-1.01.22-.02,0-.03,0-.05.02-.11.05-.15.17-.1.28.12.27.37.4.54.5Z" style="stroke-width:0px;"/><path d="M51.87,62.01c-.11-.06-.23-.12-.35-.16-.19-.08-.39-.12-.6-.11-.04,0-.07,0-.11,0,1.39,1.64.67,3.05.02,3.8-.11.03-.56.06-.67.07.16-.15.3-.33.4-.52.14-.27.23-.56.23-.87,0-.77-.48-1.43-1.18-1.78-.1-.05-.21-.09-.32-.13-.19-.08-.39-.12-.6-.11-.04,0-.07,0-.11,0,1.43,2.14.43,3.15-.17,3.56-.14.02-.47.06-.61.07.02-.02.95-.92.28-1.76-.16-.2-.36-.34-.58-.43-.22-.09-.46-.11-.7-.08,0,0,0,.01-.01,0v.06c1.41,1.6-1.07,2.49-1.06,2.5h0c.2.07.62.22.65.23,1.17.29,5.49.97,6.4-1.27.11-.28.23-.79.23-1.1,0-.7-.38-1.54-1.15-1.98Z" style="stroke-width:0px;"/><path d="M43.81,48.08c-.45-.82-1.07-1.36-1.83-1.47-.41-.06-.83,0-1.23.18,0,0-.08.03-.08.03-.31.14-.61.34-.9.59-1.19,1.03-2.2,2.95-2.61,5.24-.4,2.19-.17,4.21.51,5.55.45.89,1.1,1.48,1.9,1.61.79.12,1.59-.23,2.33-.91,1.14-1.06,2.09-2.92,2.5-5.13.41-2.26.16-4.35-.58-5.69ZM38.42,51.97c.45-1.73,1.16-2.67,1.16-2.67.41-.59.86-1.02,1.32-1.26.37-.21.85-.23,1.32-.02.24.11.45.28.61.49,0,0,0,0,0,0,.03.05.05.08.08.12.03.06.06.12.09.18.16.32.27.66.35,1.05,0,.05.02.09.02.14.17,1.19.16,1.36.15,2.61,0,.07-.03.54-.04.61-.06.47-.25,1.45-.79,2.77-.16.51-.54.98-.53.99-.65,1.1-1.65,1.74-2.33,1.66-.52-.06-.8-.35-.98-.55-.48-.54-.52-.84-.59-1.08-.16-.52-.14-.78-.16-1.05-.13-1.35.02-2.34.17-3.24.02-.12.08-.42.12-.62,0,0,.01-.07.03-.13" style="stroke-width:0px;"/><path d="M38.51,51.94c.01-.05.02-.1.03-.13" style="stroke-width:0px;"/><path d="M68.96,41.7c-.06-.2-.2-.36-.37-.45-.17-.09-.37-.12-.57-.06h-.03c-.86.27-1.75.53-2.63.74-.44.11-.88.21-1.32.31-.44.09-.87.17-1.34.23-.92.12-1.85.23-2.77.31-.59.05-1.2.09-1.79.12.08-.02.17-.04.26-.07.26-.07.51-.15.76-.22.5-.16.99-.32,1.47-.5.97-.35,1.91-.74,2.85-1.15.94-.4,1.93-.86,2.8-1.42.88-.58,1.7-1.18,2.47-1.93.24-.23.3-.6.12-.9-.08-.14-.19-.24-.33-.3-.22-.11-.48-.11-.7.02l-.03.02c-.81.47-1.67.95-2.53,1.36-.87.43-1.69.83-2.62,1.15-.92.32-1.86.62-2.79.88-.47.13-.93.25-1.4.36l-.31.07c.23-.1.46-.2.69-.31.51-.25.99-.51,1.47-.78.95-.55,1.86-1.13,2.74-1.74.91-.61,1.82-1.28,2.6-2.04.79-.78,1.51-1.57,2.15-2.51.19-.28.17-.66-.07-.92-.07-.08-.16-.14-.25-.18-.26-.13-.59-.09-.82.12l-.03.03c-.73.66-1.51,1.34-2.31,1.95-.8.62-1.58,1.22-2.46,1.72-.16.1-.33.18-.5.28-.73.41-1.47.81-2.21,1.17-.14.07-.29.13-.43.2-.27.12-.54.24-.81.35.05-.03.1-.07.15-.1.32-.22.62-.46.91-.7.16-.13.32-.26.48-.4.87-.74,1.68-1.52,2.46-2.32,0-.01.02-.02.03-.03.82-.84,1.6-1.71,2.25-2.66.65-.97,1.22-1.94,1.68-3.04.13-.31.03-.68-.26-.89,0,0,0,0-.01,0,0,0,0,0,0,0-.34-.24-.8-.16-1.03.18l-.02.03c-.6.85-1.25,1.72-1.94,2.52-.21.24-.41.48-.62.72-.49.56-.99,1.1-1.53,1.58-.27.24-.55.47-.83.71-.5.42-1,.83-1.52,1.22.08-.1.16-.21.24-.31.43-.59.82-1.18,1.19-1.78.26-.42.51-.83.76-1.26.43-.73.83-1.47,1.17-2.24.15-.34.3-.69.43-1.04.41-1.15.74-2.29.92-3.53.05-.34-.15-.68-.49-.8,0,0,0,0,0,0,0,0,0,0-.01,0-.39-.14-.81.07-.95.45v.04c-.32.88-.7,1.79-1.11,2.66-.06.14-.12.28-.19.42-.46.95-.94,1.88-1.5,2.76-.03.05-.06.11-.1.16-.42.62-.86,1.22-1.31,1.8-1.39,1.54-3.72,3.09-4.99,3.7-.62.3-1.24.71-1.87,1.02,0,0-.02.01-.03.02-.42.21-.79.54-1,.96-.05.11-.1.22-.14.33-.07.2-.11.42-.11.65,0,.81.44,1.58,1.1,1.93.22.12.46.19.73.2.04,0,.08,0,.12,0,.23-.02.35-.12.35-.12,0,0-.18-.47.09-.69.04-.03.09-.05.14-.08.13-.06.26-.09.41-.09.14,0,.27.03.39.08.35.15.6.5.6.91,0,.51-.38.92-.87.98-.22.09-.65.1-.92.1-.56,0-1.11-.06-1.64-.16-.73-.13-1.43-.36-2.08-.66-.79-.36-2.24-1.43-2.22-1.49-1.49-1.39-2.44-3.29-2.52-5.39,0-.1-.02-.19-.02-.29,0-.3.02-.63.06-.93.06-.52.18-1.03.34-1.52.29-.88.73-1.71,1.3-2.42.05-.07.31-.35.64-.68.02-.02.04-.04.06-.06,0,0,0,0,.01-.01.36-.36.8-.76,1.18-1,0,0,0,0,0,0,0,0,0,0,0,0-.03-.02-.07-.05-.11-.09-.05-.05-.1-.1-.12-.13-.69-.07-.93-.39-1.05-.67,0,0,0-.02,0-.03,0-.02-.02-.05-.03-.07-.04-.1-.03-.42-.02-.46.05-.25.2-.51.33-.63.06-.07.13-.13.19-.18.21-.16.44-.25.69-.3.06-.01.13-.03.19-.03,0,0,.02,0,.02,0,.64-.07,1.27.21,1.52.86h0s-.4.1-.4.1h0s0,0,0,0c-.13-.28-.35-.4-.6-.38-.09,0-.17.03-.27.06-.06.02-.11.05-.15.09-.41.35-.05,1.23.52,1.29.09,0,.18,0,.28-.04,0,0,0,0,.01,0,.25-.1,1.83-.48,2.78-.63.18-.03.34-.05.47-.06,0,0,0,0,.01,0,0,0,0,0,0,0,0,0,0,0,0,0,.16-.27.17-2.03-1.21-2.6-1.09-.45-2.04-.53-2.9-.53-.78,0-1.49.08-2.21.24-2.82.62-4.53,2.25-6.1,5.78h0c-1.06,2.09-1.45,4.09-1.6,4.64,0,0-.06,0-.16,0-.16-.59-.54-2.58-1.59-4.64h0c-1.57-3.53-3.29-5.17-6.11-5.78-.73-.16-1.44-.24-2.22-.24-.86,0-1.81.07-2.9.53-1.39.57-1.38,2.33-1.21,2.6,0,0,0,0,.01,0,.12,0,.28.03.47.06.95.15,2.53.53,2.78.63,0,0,0,0,.01,0,.1.04.19.05.28.04.63-.07,1-1.13.37-1.38-.09-.04-.18-.06-.27-.06-.26-.02-.47.1-.6.38h0s0,0,0,0c0,0-.39-.07-.41-.1h0c.25-.66.88-.93,1.52-.87,0,0,.02,0,.02,0,.06,0,.13.02.19.03.33.06.64.2.89.48.13.12.28.37.33.63.01.04.01.36-.02.46,0,.02-.02.04-.03.07,0,0,0,.02-.01.03-.12.28-.36.6-1.05.67-.03.03-.08.08-.12.13-.04.04-.08.08-.11.09.4.26.88.7,1.25,1.08.33.33.59.61.64.68.57.71,1.01,1.54,1.3,2.42.16.49.28,1.01.34,1.52.03.29.06.63.06.93,0,.1-.01.2-.02.3,0,.18-.02.35-.04.52-.19.88-.58,2.32-1.31,3.53-.04.06-.07.11-.11.16h.01c-.28.44-.6.84-.98,1.17.02.06-1.43,1.12-2.22,1.49-.65.3-1.35.53-2.08.66-.53.1-1.08.16-1.64.16-.27,0-.7-.01-.92-.1-.49-.07-.87-.48-.87-.98,0-.41.25-.76.6-.91.12-.05.25-.08.39-.08.15,0,.28.03.41.09.05.02.1.05.14.08.27.21.09.69.09.69,0,0,.13.1.35.12.04,0,.07.01.12,0,.26,0,.51-.08.73-.2.66-.35,1.1-1.12,1.1-1.93,0-.23-.04-.44-.11-.65-.04-.12-.08-.23-.14-.33-.21-.42-.58-.75-1-.96,0,0-.02-.01-.03-.02-.63-.31-1.26-.72-1.87-1.02-1.26-.61-3.6-2.16-4.99-3.7-.45-.58-.89-1.18-1.31-1.8-.03-.05-.06-.11-.1-.16-.56-.88-1.04-1.81-1.5-2.76-.07-.14-.12-.28-.19-.42-.41-.87-.78-1.78-1.1-2.66v-.04c-.15-.39-.57-.59-.96-.45,0,0,0,0-.01,0,0,0,0,0,0,0-.34.12-.53.46-.49.8.18,1.24.51,2.38.92,3.53.13.35.28.7.43,1.04.34.77.74,1.51,1.17,2.24.25.42.5.84.76,1.26.38.6.77,1.19,1.19,1.78.08.1.16.21.24.31-.52-.39-1.02-.8-1.52-1.22-.28-.23-.55-.46-.83-.71-.54-.48-1.05-1.02-1.53-1.58-.21-.24-.42-.48-.62-.72-.69-.8-1.35-1.67-1.94-2.52l-.02-.03c-.24-.33-.7-.41-1.03-.18,0,0,0,0,0,0,0,0,0,0-.01,0-.29.2-.39.57-.26.89.45,1.11,1.03,2.08,1.68,3.04.66.95,1.43,1.82,2.25,2.66,0,.01.02.02.03.03.78.79,1.59,1.58,2.46,2.32.16.13.32.26.48.4.29.24.59.47.91.7.05.03.1.07.15.1-.27-.11-.54-.23-.81-.35-.14-.07-.29-.13-.43-.2-.74-.36-1.48-.76-2.21-1.17-.17-.09-.33-.18-.5-.28-.88-.5-1.66-1.1-2.46-1.72-.8-.61-1.58-1.29-2.31-1.95l-.03-.03c-.23-.21-.55-.25-.82-.12-.09.04-.17.1-.25.18-.24.26-.25.64-.07.92.64.94,1.36,1.73,2.15,2.51.79.76,1.7,1.43,2.6,2.04.89.61,1.79,1.19,2.74,1.74.48.27.96.54,1.47.78.22.11.45.21.69.31l-.31-.07c-.46-.11-.93-.23-1.4-.36-.93-.26-1.87-.56-2.79-.88-.93-.32-1.75-.72-2.62-1.15-.86-.41-1.72-.89-2.53-1.36l-.03-.02c-.22-.13-.49-.13-.7-.02-.13.06-.25.16-.33.3-.17.3-.11.67.12.9.77.75,1.59,1.36,2.47,1.93.87.56,1.86,1.02,2.8,1.42.94.41,1.88.8,2.85,1.15.48.18.97.35,1.47.5.25.08.5.15.76.22.09.02.17.05.26.07-.59-.03-1.2-.07-1.79-.12-.92-.08-1.85-.18-2.77-.31-.47-.06-.91-.14-1.34-.23-.44-.1-.88-.2-1.32-.31-.88-.2-1.78-.47-2.63-.73h-.03c-.2-.07-.4-.04-.57.05-.17.09-.31.25-.37.45-.1.33.04.67.32.84.87.53,1.75.93,2.68,1.29.92.35,1.93.57,2.87.77.95.21,1.89.39,2.85.55.86.14,1.7.27,2.6.36-.55.07-1.1.13-1.65.18-.88.09-1.77.16-2.65.22-.22.02-.44.02-.67.03h-.63s-1.28-.01-1.28-.01c-.86,0-1.75-.07-2.6-.12h-.03c-.15,0-.3.03-.42.1-.21.12-.36.34-.38.6-.02.34.19.64.5.74.91.31,1.8.5,2.74.65.46.07.93.11,1.41.13.24.01.48.02.71.02h.68c.91.03,1.82.03,2.74.02.63,0,.77,0,1.4-.03l.08.28c-1.04.33-1.76.54-2.81.84-.82.23-1.6.38-2.4.55-.8.18-1.63.32-2.43.49h-.02c-.05.02-.11.04-.16.06-.32.14-.51.48-.44.84.07.33.34.56.66.59.9.08,1.76.06,2.65,0,.88-.06,1.77-.26,2.61-.41.85-.16,2.09-.45,2.93-.63l.07.21c-.35.2-1.1.6-1.45.79-.35.19-.7.37-1.05.54-.35.17-.69.33-1.04.51h0s0,0-.01,0c-.7.36-1.42.71-2.12,1.08h-.01c-.36.2-.5.66-.3,1.02.16.29.49.44.8.38.82-.16,1.6-.39,2.39-.64.78-.26,1.55-.63,2.29-.95.2-.09.98-.42,1.18-.51l.14.62c-.12.09-.56.39-.56.39l-.86.75c-.57.51-1.1,1.06-1.6,1.65-.27.32-.23.79.08,1.06.24.2.57.23.84.09,0,0,0,0,.01,0,0,0,0,0,0,0,.69-.36,1.34-.76,1.96-1.2l.66-.38s.36,2.17.45,3.06c.29,2.78.21,5.99.51,6.36.25.31.75.24,1.2.26-.03-.11-.05-.21-.07-.31,0-.01,0-.02,0-.03-.32-1.49.12-2.59.4-3.04,0,0,0-.02,0-.02,0,0,.03-.1.03-.12-.1-1.77-.33-4.63-.73-6.84-.64-3.53-1.71-9.2-2.01-10.8-.02-.1.02-.18.08-.24.07-.06.16-.09.26-.06,1.08.27,2.87.43,4.02.51.86.06,2.91.05,5.02-.6-.9,2.11-1.41,4.54-1.41,7.11,0,5.05,1.96,9.51,4.94,12.19-.35.06-.62.11-.69.13-.77.27-1.37.66-1.71.85,0,0-.01.01-.02.02-.02.01-.05.02-.07.03-.12.06-.12.2-.1.33.08.37.28.82.48,1.09.04.06.09.12.16.12,2.79.14,4.84.35,6.49,1.39,0,0,.01,0,.02.01.05.03.09.06.13.09.78.61,1.09,1.88.46,2.78-.22.22-.44.44-.67.65-.76.66-1.59,1.22-2.47,1.64-.87.42-1.78.69-2.71.82-.93.17-1.86.29-3.07.58h0s-.08.03-.11.05c-.1.07-.16.19-.13.31.01.05.04.1.07.13.89.96,2.21,1.34,3.48,1.27.96-.07,1.89-.35,2.74-.76.28-.14.56-.29.83-.45,1.06-.65,1.97-1.5,2.65-2.51.01-.02.03-.04.04-.06,0,.01,0,.02,0,.03-.16.54-.67,1.96-1.09,2.44-.42.48-.8.94-1.24,1.3-.33.27-.68.5-1.06.69-.13.06-.26.12-.39.18-.56.23-1.2.38-1.95.54h0s-.07.03-.1.05c-.1.06-.15.17-.13.29.02.07.05.13.11.17.67.48,1.51.7,2.39.65.44-.03.89-.13,1.3-.31.41-.17.8-.4,1.14-.68.11-.09.21-.2.31-.3.19.38.4.77.54,1.15.2.46.35.91.6,1.37.06.1.18.15.23.14,0,0,.2-.04.25-.14.25-.46.43-.91.62-1.37.15-.38.35-.77.54-1.15.1.1.19.21.31.3.34.28.73.52,1.14.68.42.17.86.28,1.3.31.88.05,1.72-.17,2.39-.65.05-.04.09-.1.11-.17.03-.12-.03-.23-.13-.29-.03-.02-.06-.04-.1-.05h0c-.75-.16-1.39-.31-1.95-.54-.14-.06-.27-.11-.39-.18-.39-.19-.73-.42-1.06-.69-.44-.36-.82-.82-1.24-1.3-.41-.48-.93-1.9-1.09-2.44,0-.01,0-.02,0-.03.01.02.03.04.04.06.69,1,1.6,1.85,2.65,2.51.27.16.54.31.83.45.85.41,1.78.68,2.74.76,1.27.07,2.59-.31,3.48-1.27.03-.04.06-.08.07-.13.03-.12-.03-.25-.13-.31-.03-.02-.07-.04-.11-.05h0c-1.21-.29-2.14-.41-3.07-.58-.92-.13-1.84-.4-2.71-.82-.87-.42-1.7-.98-2.47-1.64-.22-.21-.45-.42-.67-.65-.63-.9-.32-2.17.46-2.78.04-.03.09-.06.13-.09,0,0,.01,0,.02-.01,1.64-1.04,3.7-1.26,6.49-1.39.07,0,.12-.06.16-.12.2-.27.4-.72.48-1.09.03-.13.02-.26-.1-.33-.02-.01-.05-.02-.07-.03,0,0-.02-.01-.02-.02-.34-.2-.95-.58-1.72-.85-.07-.02-.33-.07-.66-.12,2.99-2.68,4.96-7.15,4.96-12.2,0-2.57-.52-4.99-1.41-7.1,2.1.64,4.14.65,5,.59,1.15-.08,2.93-.24,4.02-.51.1-.02.19,0,.26.06.06.06.09.15.08.24-.3,1.6-1.37,7.26-2.01,10.8-.4,2.22-.64,5.07-.73,6.84,0,.02.02.11.03.12,0,0,0,.02,0,.02.27.45.72,1.55.4,3.04,0,.01,0,.02,0,.03-.02.1-.04.2-.07.31.45-.01.95.06,1.2-.26.3-.37.22-3.58.51-6.36.09-.89.45-3.05.45-3.06l.66.38c.62.45,1.28.85,1.96,1.2,0,0,0,0,0,0,0,0,0,0,.01,0,.26.14.6.11.84-.09.32-.27.35-.74.08-1.06-.5-.59-1.03-1.14-1.6-1.65l-.86-.75s-.44-.31-.56-.39l.14-.62c.2.09.98.42,1.18.51.75.33,1.51.69,2.29.95.79.25,1.57.49,2.39.64.31.06.64-.08.8-.38.2-.36.06-.82-.3-1.01h-.01c-.7-.38-1.42-.73-2.12-1.09,0,0,0,0-.01,0h0c-.35-.17-.69-.34-1.04-.51-.35-.17-.7-.35-1.05-.54-.35-.19-1.1-.59-1.45-.79l.07-.21c.84.18,2.08.47,2.93.63.84.16,1.73.35,2.61.41.89.06,1.75.08,2.65,0,.32-.03.6-.26.66-.59.07-.35-.12-.7-.44-.84-.05-.02-.1-.04-.16-.05h-.02c-.8-.17-1.63-.32-2.43-.49-.81-.17-1.58-.32-2.4-.55-1.05-.29-1.76-.51-2.81-.84l.08-.28c.63.02.77.02,1.4.03.91.01,1.82,0,2.74-.01h.68c.24-.01.48-.02.71-.03.47-.02.94-.06,1.41-.13.93-.15,1.83-.34,2.74-.65.31-.11.52-.4.5-.74-.01-.26-.16-.48-.38-.6-.12-.07-.27-.11-.42-.11h-.03c-.85.05-1.74.11-2.6.12l-1.28.02h-.63c-.23-.02-.45-.03-.67-.04-.88-.06-1.77-.13-2.65-.22-.55-.05-1.1-.12-1.65-.18.9-.09,1.74-.22,2.6-.36.96-.16,1.9-.35,2.85-.55.94-.19,1.96-.42,2.87-.77.93-.36,1.81-.75,2.68-1.29.28-.17.42-.52.32-.84ZM36.52,64.46s-.03,0-.04,0c-3.32-.02-6.26-2.25-8.03-5.64.83-1.4,2.54-4.44,2.54-4.44.16.62,1.11,4.75,1.11,4.75,0,0-1.21.52-.6.89.61.37,1.9.1,1.9.1,0,0,.33.3.68.55.42.32.9.55,1.42.69.2.08.33.12.33.12,0,0-.12.57.06.87.07.12.14.22.37.22.07,0,.13-.02.2-.04.2-.07.39-.23.5-.35.28-.29.38-.49.59-.77,0-.01,0-.03.02-.05.49-.13,1.02-.31,1.51-.93-1.21-.47-2.23-1.57-2.62-3.39-.14-.66-.22-1.39-.23-2.15,0-.8.06-1.64.21-2.49,0-.03.01-.06.02-.09.57-2.98,2.42-5.26,2.95-5.45-.17-.38-.1-1.35-1.39-1.89-.28-.12-1.15-.17-1.23-.57.41-.28.72-.8.8-1.43.1-.84-.25-1.6-.82-1.87.14-.31.47-.73.47-.73l-.65-.69-.13.07-.71.38s.21.61.21.93c-.56.19-.97.63-1.07,1.41-.05.38.16.98.6,1.41.24.24.28.43.14.58-.32.32-.98.24-1.32.74-.21.31-.47,1.03-.47,1.03-.16.32-1.1,2.58-1.56,3.37-.12.2-.58.94-.58.94,0,0-.2.14-.43.32-.19.15-.39.33-.51.49-.36.46-.21,1.27,0,1.62l-2.73,5c-.11-.23-.16-.35-.16-.35-.77-1.88-1.21-4.03-1.21-6.32,0-7,4.1-12.74,9.26-13.15h1.19c.57.05,1.12.16,1.66.33.28.09.56.19.83.32,3.92,1.74,6.75,6.69,6.75,12.51,0,7.27-4.42,13.18-9.85,13.18ZM35.5,50.18s-1.92.73-2.83,1.1l1.87-3.24s.09.45.85.77c-.02.12.12,1.37.12,1.37Z" style="stroke-width:0px;"/><path d="M33.7,4.13s.07-.01.1-.02c.14.23.37.39.66.39h0c.29,0,.53-.15.66-.39h1.04v.68c-.67.16-1.16.76-1.16,1.48,0,.38.15.73.38.99-.25.09-.48.22-.67.4-.6.58-.75,1.79-.24,3.23.36.99.88,1.81,1.39,2.3.23.25.46.35.66.35h.05c.21,0,.43-.11.66-.35.5-.48,1.03-1.3,1.39-2.3.51-1.44.36-2.65-.24-3.23-.2-.18-.44-.32-.69-.41.22-.26.37-.61.37-.99,0-.71-.49-1.32-1.16-1.48v-.68h1.05c.12.23.37.39.66.39h0c.29,0,.54-.16.67-.41.03,0,.06.02.09.02.2,0,.37-.16.37-.36s-.16-.36-.37-.36c-.02,0-.05,0-.08.01-.13-.24-.38-.42-.68-.42h0c-.28,0-.54.16-.66.39h-1.05v-1.38c.24-.14.39-.37.39-.67s-.17-.56-.42-.68c.02-.04.02-.07.02-.11,0-.2-.16-.36-.36-.36s-.37.17-.37.36c0,.04.01.08.03.11-.25.12-.43.38-.43.68s.15.53.39.67v1.38h-1.04c-.14-.24-.38-.39-.66-.39h0c-.3,0-.57.18-.68.44-.03,0-.05,0-.08,0-.2,0-.36.16-.36.36s.17.36.36.36Z" style="stroke-width:0px;"/><path d="M43.4,52.3c-.16-.15-.35-.21-.5-.21.09-.19.15-.46.09-.65-.02-.05-.05-.11-.09-.15h0c-.22-.28-.4-.35-.49-.36-.06-.01-.35-.04-.5.16l-.02-.25c-.12.1-.23.42-.26.5-.06.19-.19.66-.19.66.36-.57.56-.64.87-.72-.27.19-.49.62-.61,1.01l.72-.48-.16-.11c.09-.14.18-.2.33-.11.05.03.09.09.1.17,0,.06,0,.22-.14.41h0l-1.3,1.12c-.1.08-.13.17-.12.43,0,.09.1.19.26.03l1.39-1.24c.07-.06.17,0,.2.04.08.12.04.36-.17.67l-.12-.27c-.12.16-.34.56-.52.76,0,0,.37.03.65-.19.08-.06.14-.12.2-.18-.23.59-.76,1.01-.76,1.02,0,0,.36-.04.55-.14.2-.1.39-.23.55-.41l-.27-.09c.13-.18.34-.41.43-.78.07-.29.03-.51-.11-.64Z" style="stroke-width:0px;"/><path d="M40.43,52.37l.18-.87-.24.18s-.17-.24-.23-.3c-.23-.25-.46-.36-.68-.32-.26.05-.32.23-.63.14.01.24-.23.34-.36.53-.13.19-.13.44,0,.75.03.08.19.34.19.34l-.3.09.94.28c0-.1-.11-.73-.11-.73l-.22.16c-.09-.11-.12-.18-.18-.28-.09-.15-.15-.27-.1-.37.04-.09.19-.1.27-.11l1.05,1.66c.05.1.15.1.18.04.1-.2.11-.42.06-.48l-.94-1.44c.04-.07.14-.16.22-.18.13-.02.19.01.32.12.09.07.17.2.21.25l-.25.1c.18.13.5.35.61.43Z" style="stroke-width:0px;"/><path d="M40.61,49.39c.14.21.39.46.5.57,0,0-.16.2-.19.24-.1.17.33.24.36.24.05,0,.46.1.42-.1,0-.05-.12-.28-.12-.28.14-.06.49-.23.7-.37.03-.02.09-.07.11-.1.39-.49.26-.79.26-.79l-.73.46c-.07.04-.1,0-.1,0,.06-.04.15-.26.17-.31.03-.09,0-.15-.11-.18-.1-.02-.15.01-.15.01.02-.04.02-.04.03-.05,0,0,0-.01.01-.02,0-.01,0-.02.01-.04,0,0,0,0,0,0,0,0,0,0,0-.01,0-.1-.08-.19-.19-.19-.08,0-.15.05-.17.13,0,0,0,0,0,.01,0,.04-.01.01,0,.12,0,0-.03-.04-.13-.06-.11-.02-.14.03-.14.12,0,.06-.02.24.03.36,0,0-.05.03-.1-.04l-.53-.68s-.23.24-.03.83c.01.03.06.1.07.13Z" style="stroke-width:0px;"/><path d="M39.84,55.05c.08-.08.13-.18.15-.29l.04-.21c.02-.12-.11-.18-.2-.1l-1.22,1.16-.03.03s-.06-.02-.09-.02c-.05,0-.11,0-.16.01-.06.02-.11.05-.16.09-.18.17-.22.47-.08.68.07.1.17.17.28.18.09.01.18-.01.26-.06.02-.01.04-.03.06-.04.11-.1.2-.3.15-.46l1-.96ZM38.42,56.32c-.11,0-.19-.09-.19-.19s.09-.19.19-.19.19.09.19.19-.09.19-.19.19Z" style="stroke-width:0px;"/><path d="M42.14,56.05s-.09,0-.14.01l-.91-1.42c-.06-.1-.18-.08-.2.03l-.03.12c-.03.15-.05.15.1.44l.73,1.11c-.07.17-.06.37.04.52.07.1.17.17.29.19.12.01.23-.03.33-.11,0,0,0,0,0,0,.18-.17.22-.48.08-.69-.07-.1-.17-.17-.29-.19ZM42.08,56.73c-.11,0-.19-.09-.19-.19s.09-.19.19-.19.19.09.19.19-.09.19-.19.19Z" style="stroke-width:0px;"/><path d="M40.15,57.55c.27-1.44.96-5.17.97-5.21.05-.3.22-1.11.26-1.57.03-.17-.25-.28-.31-.04-.08.33-.28,1.19-.35,1.52h0s-.76,3.77-1.04,5.22c-.02.09-.06.16-.11.23-.03.05-.06.11-.07.17-.03.21.09.4.28.43.19.03.36-.11.4-.32,0-.05,0-.1,0-.14-.02-.1-.03-.2-.01-.3Z" style="stroke-width:0px;"/><rect x="41" y="55.82" width="1.38" height=".3" rx=".07" ry=".07" transform="translate(-25.24 36.18) rotate(-36.85)" style="stroke-width:0px;"/></svg>